<svg xmlns="http://www.w3.org/2000/svg" width="200.812" height="38" viewBox="0 0 200.812 38">
  <defs>
    <style>
      .cls-1 {
        fill: #fff;
        fill-rule: evenodd;
      }
    </style>
  </defs>
  <path id="Logo" class="cls-1" d="M234.13,54.359A2.78,2.78,0,0,1,237,51.279a3.371,3.371,0,0,1,1.925.665l1.4-3.851a8.784,8.784,0,0,0-3.92-.84c-4.061,0-7.036,2.66-7.036,7.176v1.225h-2.45V59.3h2.45V72.176h4.76V59.3h5.181V55.654H234.13v-1.3Zm12.285-3.99a3.1,3.1,0,0,0-6.2,0A3.1,3.1,0,0,0,246.415,50.369Zm-5.531,21.807h4.8V55.514l-4.8.14V72.176ZM258.6,55.445a5.382,5.382,0,0,0-5.356,3.535H253.1a14.653,14.653,0,0,0-.595-3.465l-3.745.14V72.176h4.8V63.635c0-1.925,1.05-4.06,3.5-4.06,1.926,0,2.906,1.33,2.906,3.29v9.311h4.795V62.025C264.756,58.28,262.691,55.445,258.6,55.445Zm20.719-7.981V57.685a5.643,5.643,0,0,0-4.9-2.24c-4.2,0-7.561,3.08-7.561,8.541,0,4.866,2.835,8.4,7.316,8.4a5.622,5.622,0,0,0,5.5-3.326h0.1a17.732,17.732,0,0,0,.455,3.255l3.886-.14V47.464h-4.8Zm-3.815,20.9c-2.31,0-3.781-1.75-3.781-4.375,0-2.765,1.436-4.515,3.676-4.515a3.852,3.852,0,0,1,3.92,3.885v1.12A3.857,3.857,0,0,1,275.5,68.361Zm11.654,3.816h4.8V47.464h-4.8V72.176Zm23.871-3.745a1.633,1.633,0,0,1-.595.105c-0.63,0-.91-0.315-0.91-1.085V62.06c0-4.165-2.625-6.615-7.491-6.615-4.55,0-7.316,2.1-7.316,5.25a6.2,6.2,0,0,0,.21,1.61l4.2-.7a1.2,1.2,0,0,1-.14-0.63c0-1.19,1.015-1.925,2.835-1.925,2.03,0,3.01,1.12,3.01,2.8v0.735h-0.21c-6.16.14-10.466,1.155-10.466,5.251,0,2.765,2.03,4.551,5.6,4.551,3.43,0,4.795-1.61,5.32-2.625,0.315,1.75,1.541,2.625,3.816,2.625a8.741,8.741,0,0,0,2.345-.315Zm-9.906.42c-1.435,0-2.31-.56-2.31-1.645,0-1.54,1.855-2.1,5.81-2.205h0.21v1.33C304.829,67.661,303.429,68.851,301.119,68.851Zm21.84-13.406A5.381,5.381,0,0,0,317.6,58.98h-0.14a14.653,14.653,0,0,0-.595-3.465l-3.746.14V72.176h4.8V63.635c0-1.925,1.05-4.06,3.5-4.06,1.925,0,2.906,1.33,2.906,3.29v9.311h4.8V62.025C329.12,58.28,327.055,55.445,322.959,55.445Zm16.765,0a8.149,8.149,0,0,0-8.576,8.541c0,4.9,3.29,8.4,8.821,8.4,3.71,0,6.125-1.505,7.175-2.835l-2.345-3.01a5.755,5.755,0,0,1-4.515,1.925c-2.836,0-4.271-1.855-4.271-4.655,0-2.66,1.47-4.445,3.641-4.445a2.525,2.525,0,0,1,2.73,2.625,2.742,2.742,0,0,1-.07.735l4.235-.245a6.444,6.444,0,0,0,.105-1.225C346.654,58.035,344.1,55.445,339.724,55.445Zm17.885,13.3A4.38,4.38,0,0,1,352.918,65h11.131a9.843,9.843,0,0,0,.14-1.75c0-4.515-2.765-7.806-7.6-7.806-5.11,0-8.435,3.535-8.435,8.471,0,4.971,3.325,8.471,8.89,8.471,3.571,0,5.986-1.435,7.106-2.905l-2.275-2.625A5.387,5.387,0,0,1,357.609,68.746Zm-1.016-9.661a3.182,3.182,0,0,1,3.221,3.43h-6.9A3.655,3.655,0,0,1,356.593,59.085Zm18.76-3.64c-2.485,0-3.78,1.61-4.41,3.71H370.8a15.937,15.937,0,0,0-.595-3.64l-3.746.14V72.176h4.8V64.2c0-2.765,1.575-4.236,3.4-4.236a3.2,3.2,0,0,1,1.89.6l1.26-4.62A6,6,0,0,0,375.353,55.445ZM208.926,53.871l-0.744.746a3.926,3.926,0,0,1-.3.267,15.431,15.431,0,1,1-9.033-8.322h0a4.108,4.108,0,0,1,.569-0.724l0.382-.383A16.816,16.816,0,1,0,208.926,53.871Zm-4.844,2.055h-1.526a9.979,9.979,0,1,1-4.442-4.232V50.2A11.375,11.375,0,1,0,204.082,55.927Zm9.813-10.3a1.032,1.032,0,0,0-.447-0.438,1.455,1.455,0,0,0-.525-0.147l-3.24-.324a0.443,0.443,0,0,1-.251-0.134,0.437,0.437,0,0,1-.134-0.252l-0.324-3.25a1.345,1.345,0,0,0-.253-0.694,1,1,0,0,0-.331-0.28A0.954,0.954,0,0,0,207.951,40a1.088,1.088,0,0,0-.5.127,1.552,1.552,0,0,0-.37.277l-6.54,6.557a2.926,2.926,0,0,0-.6.943A2.958,2.958,0,0,0,199.7,49v3.745a1.584,1.584,0,0,0,.175.71l-2.815,2.906a5.442,5.442,0,1,0,.979.948l2.915-3.009a1.606,1.606,0,0,0,.335.037h3.737a3.189,3.189,0,0,0,2.031-.843l6.539-6.555a1.514,1.514,0,0,0,.276-0.371,1.086,1.086,0,0,0,.127-0.5A0.953,0.953,0,0,0,213.9,45.626Zm-20.1,19.182a4.094,4.094,0,1,1,2.315-7.463l-2.8,2.894a0.682,0.682,0,1,0,.977.951l2.8-2.892A4.089,4.089,0,0,1,193.791,64.808Zm7.273-12.581V49a1.66,1.66,0,0,1,.138-0.571,1.62,1.62,0,0,1,.305-0.5l6.167-6.182,0.271,2.723a1.7,1.7,0,0,0,.141.512Zm5.033,0.3a1.659,1.659,0,0,1-.5.306,1.633,1.633,0,0,1-.569.137h-2.787l6.811-7.031a1.72,1.72,0,0,0,.494.135l2.715,0.271Z" transform="translate(-177 -40)"/>
</svg>
